PathFileType	4	(X/Y/Z)	D:\Share\Shared_Data\Ergonomics\Sit To Stand Pertubation\S2\Perturbed.trc
DataRate	CameraRate	NumFrames	NumMarkers	Units	OrigDataRate	OrigDataStartFrame	OrigNumFrames	
100	100	19	18	m	100	8741	201
Frame#	Time	R_Toe			R_ASIS			R_Pelvis			V_Sacral			L_Pelvis			L_ASIS			Clavical			R_Acromium			L_Acromium			Sternum			Torso			R_Thigh_Med			R_Thigh_Lat			R_Thigh			R_Shank_Med			R_Shank_Lat			R_Shank			R_Heel			
		X1	Y1	Z1	X2	Y2	Z2	X3	Y3	Z3	X4	Y4	Z4	X5	Y5	Z5	X6	Y6	Z6	X7	Y7	Z7	X8	Y8	Z8	X9	Y9	Z9	X10	Y10	Z10	X11	Y11	Z11	X12	Y12	Z12	X13	Y13	Z13	X14	Y14	Z14	X15	Y15	Z15	X16	Y16	Z16	X17	Y17	Z17	X18	Y18	Z18	

8741	87.4	0.43076657	0.068825577	0.1454399	-0.055068188	0.62337115	0.12383646	-0.1296434	0.64605328	0.16827382	-0.27829828	0.61238525	0.018912821	-0.16984354	0.65767407	-0.16412256	-0.073581879	0.64552228	-0.14594585	0.1856071	0.91067352	-0.0088200312	0.13208815	0.98831659	0.19717381	0.12287172	0.99525677	-0.19387289	0.13194238	0.75972229	-0.0058985362	0.17083131	0.87609253	-0.11917097	0.30605222	0.51032294	0.14186513	0.27004941	0.51296625	0.24342262	0.11430681	0.62352625	0.18801755	0.29383145	0.11222815	0.11286845	0.27160284	0.099325394	0.20539778	0.27585495	0.36033313	0.25137749	0.19351926	0.060240852	0.14976384
8742	87.41	0.43060608	0.069457962	0.14571953	-0.050376015	0.62311426	0.12458531	-0.12465345	0.64710376	0.16883318	-0.27350043	0.61632245	0.019314022	-0.16404286	0.65985388	-0.16337744	-0.068043854	0.64604938	-0.14476706	0.19563664	0.90633521	-0.0096336222	0.14395503	0.98586597	0.19621066	0.13473906	0.99228558	-0.19458226	0.14017152	0.75627167	-0.0064191389	0.18070828	0.87245734	-0.11969965	0.30848126	0.51022659	0.14314233	0.2723056	0.5126911	0.24463646	0.11650497	0.62380011	0.18943297	0.29381573	0.11242204	0.11321372	0.27130991	0.099080864	0.20564455	0.27749179	0.35997925	0.25218964	0.19338002	0.059967651	0.14982257
8743	87.42	0.43044324	0.070159798	0.14601831	-0.045415417	0.62304138	0.12537217	-0.11941068	0.6483501	0.16941527	-0.26827557	0.6205047	0.01971517	-0.15784154	0.66220654	-0.16266306	-0.062163261	0.64670068	-0.14367427	0.20575778	0.90222339	-0.010401072	0.15567834	0.98356061	0.19523581	0.14657208	0.98942651	-0.19527388	0.14869238	0.75296631	-0.0069155316	0.19085034	0.86903064	-0.12018725	0.31118024	0.510108	0.14430162	0.27481656	0.51243073	0.24574159	0.1190104	0.62422174	0.19069858	0.29381592	0.11262891	0.11355475	0.27103198	0.098824982	0.20586409	0.27934052	0.35961151	0.25291512	0.19324976	0.059696014	0.14987215
8744	87.43	0.43029211	0.070893402	0.14631497	-0.040211819	0.6231637	0.12616922	-0.11394407	0.64979468	0.16998373	-0.26264206	0.62490442	0.020080971	-0.1512748	0.66471497	-0.16199374	-0.055963501	0.64747882	-0.14269749	0.21596072	0.89834265	-0.011105214	0.167233	0.98140106	0.19426389	0.15834265	0.9866853	-0.19593863	0.15746741	0.74980322	-0.0073655658	0.20116344	0.86578418	-0.12062141	0.31414404	0.50995886	0.14531053	0.27757199	0.51219	0.24670622	0.12184888	0.62480444	0.19174649	0.29383096	0.11282668	0.11387305	0.27079544	0.098567108	0.20604102	0.28138983	0.35923001	0.25352553	0.19314125	0.059441143	0.14990718
8745	87.44	0.43016702	0.071618179	0.14658786	-0.034786465	0.62348138	0.12692738	-0.1082729	0.65143127	0.17048294	-0.25662918	0.62947992	0.020363396	-0.14439125	0.66734369	-0.16139467	-0.049479343	0.64837152	-0.14186737	0.2262218	0.89470074	-0.011732123	0.17858865	0.97939594	0.19330968	0.17001288	0.98407471	-0.19656754	0.16643263	0.74678699	-0.0077484283	0.21151791	0.86269641	-0.1209893	0.31736411	0.50976749	0.1461404	0.28056497	0.51196759	0.24750235	0.12504659	0.62555035	0.19252402	0.29385641	0.11298863	0.11414719	0.27062573	0.098316277	0.20616197	0.28363699	0.35883472	0.25399396	0.19306577	0.059214775	0.14992166
8746	87.45	0.43007773	0.072302277	0.14682135	-0.029159302	0.62398682	0.12758821	-0.10241048	0.6532453	0.17085388	-0.250283	0.63417297	0.020517078	-0.13725629	0.67004266	-0.16089633	-0.042762554	0.64935455	-0.14121588	0.23650806	0.89131049	-0.01227353	0.18970903	0.97756219	0.19238701	0.18153448	0.98161603	-0.19715196	0.17550418	0.74393591	-0.0080449104	0.22178011	0.85976318	-0.12127562	0.3208241	0.50951779	0.1467644	0.28379431	0.51175671	0.24810565	0.1286203	0.62644122	0.19299503	0.29388803	0.11309165	0.11435491	0.27053903	0.098077393	0.20621458	0.28608447	0.35842545	0.2542991	0.1930296	0.059022602	0.14991084
8747	87.46	0.43002545	0.072930473	0.14701164	-0.023354448	0.62467242	0.12810077	-0.096371796	0.65521533	0.17105714	-0.24366988	0.63890424	0.02050951	-0.12995328	0.67275494	-0.16052718	-0.035881927	0.6504035	-0.14076782	0.24677881	0.88819086	-0.012728154	0.20055165	0.97592584	0.19150827	0.19285109	0.97933948	-0.1976842	0.1845818	0.74128424	-0.0082405453	0.2318425	0.85700098	-0.1214661	0.32449973	0.50919223	0.14715874	0.28726511	0.51154752	0.24849606	0.13256995	0.62743066	0.19313922	0.29392172	0.11312379	0.1144796	0.27053574	0.097848869	0.20618713	0.28873511	0.35800378	0.25442815	0.19303163	0.058863403	0.14987242
8748	87.47	0.43000284	0.073500687	0.14716826	-0.01740321	0.62553668	0.12843051	-0.090179947	0.65731293	0.17108185	-0.23687657	0.64356915	0.020323328	-0.12258154	0.67542444	-0.16030765	-0.028919722	0.65150671	-0.14053555	0.25698416	0.88537	-0.013098724	0.2110683	0.9745199	0.19068396	0.20390146	0.97728296	-0.19815779	0.19355095	0.73888013	-0.0083306227	0.24163255	0.85444427	-0.12155208	0.32836368	0.50877457	0.14730696	0.29098715	0.51133029	0.24866045	0.13687866	0.62844885	0.19295172	0.29395023	0.11308571	0.11451768	0.27060126	0.097623932	0.2060723	0.29158475	0.35757452	0.25437912	0.19306409	0.058731361	0.14980792
8749	87.48	0.42999933	0.074013069	0.14730803	-0.011343674	0.62658459	0.12856213	-0.083868813	0.65950232	0.17094167	-0.23000732	0.64804248	0.019960606	-0.11524961	0.67800269	-0.16024519	-0.021967051	0.65267078	-0.14051704	0.26706271	0.88288928	-0.013387193	0.22120628	0.97338141	0.18992204	0.21462306	0.97548956	-0.19856834	0.20228668	0.7367804	-0.0083239584	0.25110063	0.85214093	-0.12153271	0.33239374	0.50825256	0.14720477	0.29497275	0.51109689	0.24859549	0.14152249	0.62942279	0.19244608	0.29396863	0.11298826	0.11448013	0.27071548	0.097396858	0.20587427	0.2946174	0.35714505	0.25416096	0.19311623	0.058620373	0.14972298
8750	87.49	0.43000766	0.074462868	0.14744466	-0.0052191839	0.62782355	0.12850227	-0.077483047	0.66174335	0.17066989	-0.22317699	0.6521911	0.019449814	-0.10806496	0.68044995	-0.160332	-0.015117327	0.65391437	-0.14069334	0.27694113	0.88079749	-0.013594579	0.23091124	0.97254974	0.18922729	0.22495578	0.97400378	-0.19891507	0.21066382	0.73504578	-0.008242074	0.26020706	0.85014514	-0.1214163	0.33657898	0.50761938	0.1468624	0.29923297	0.51083792	0.24831033	0.14648604	0.63030261	0.19166103	0.29398474	0.11284976	0.11438598	0.27086407	0.097169556	0.20561244	0.29780917	0.35672226	0.25379109	0.1931785	0.058527161	0.14962602
8751	87.5	0.43002655	0.074841293	0.14758179	0.00092427534	0.62925665	0.12827957	-0.071075241	0.66399536	0.17031306	-0.21649837	0.65589575	0.018846735	-0.10112133	0.68273627	-0.16054521	-0.0084567909	0.65525665	-0.14102814	0.28653674	0.87914398	-0.013725345	0.24013152	0.97206287	0.18860049	0.23484436	0.97286859	-0.19920171	0.21857478	0.73373541	-0.0081133032	0.26891843	0.84851318	-0.1212216	0.3409241	0.50687415	0.14630313	0.30377374	0.51054001	0.24782637	0.15176808	0.63107458	0.19066412	0.29402585	0.11269424	0.11425453	0.27104263	0.096954041	0.2053188	0.30113892	0.35630893	0.25329178	0.19324434	0.058450932	0.14952504
8752	87.51	0.43005917	0.075139854	0.14771361	0.0070420694	0.63087689	0.12793742	-0.064699326	0.66622229	0.16992064	-0.21006422	0.65907318	0.018216972	-0.094486229	0.68484283	-0.16084946	-0.0020511925	0.6567088	-0.14147392	0.29576184	0.87797174	-0.013790462	0.24882269	0.97195532	0.18803856	0.2442399	0.97212317	-0.19943626	0.22594998	0.73290125	-0.0079645414	0.27720947	0.84729999	-0.12097734	0.34544382	0.50602145	0.14555916	0.30859079	0.5101875	0.24717323	0.15736896	0.63175262	0.18954411	0.29413193	0.11254777	0.11410141	0.27125262	0.096768692	0.20502882	0.3045957	0.35590152	0.25268829	0.19330975	0.058391396	0.14942531
8753	87.52	0.43011017	0.075353577	0.14782954	0.013095535	0.63266638	0.12752458	-0.058402645	0.66839691	0.16953679	-0.20393018	0.66169318	0.017610493	-0.088191246	0.68676569	-0.16120142	0.0040675697	0.65827191	-0.14198079	0.30452853	0.87731677	-0.013806981	0.25695151	0.97225574	0.18753586	0.25310191	0.97180273	-0.19963049	0.23277219	0.73258295	-0.0078155613	0.28506342	0.84655725	-0.12071904	0.35014578	0.50506924	0.14466711	0.31366577	0.50976587	0.24638342	0.16327312	0.63235364	0.1883938	0.29433505	0.11242946	0.11393769	0.271495	0.096629929	0.20476956	0.30817673	0.35549139	0.2520076	0.19337271	0.058347267	0.14932796
8754	87.53	0.43018332	0.075481056	0.14791969	0.019057404	0.63459814	0.12708955	-0.052218639	0.6705083	0.16919687	-0.19810545	0.66379303	0.017060495	-0.082227425	0.68852167	-0.16155762	0.0099046907	0.65993744	-0.14250092	0.31275473	0.8772063	-0.013795678	0.26449899	0.97298676	0.1870856	0.26140073	0.97194	-0.19979907	0.23907693	0.73280328	-0.0076797705	0.29247021	0.84633118	-0.1204835	0.35502036	0.50402838	0.1436633	0.3189657	0.50926471	0.24548772	0.16944212	0.63288556	0.18729443	0.29464539	0.11234525	0.11376985	0.27176801	0.09654599	0.20455386	0.31187924	0.35506805	0.25127637	0.19343251	0.058316151	0.14923091
8755	87.54	0.43028085	0.075523216	0.14797675	0.024916359	0.63664075	0.12667622	-0.046162029	0.67256604	0.16892528	-0.19255505	0.66548029	0.016597561	-0.076548653	0.69015295	-0.16188254	0.015495132	0.66169073	-0.14299203	0.32037064	0.87765887	-0.013777797	0.27146243	0.97416248	0.18668031	0.26911697	0.97256451	-0.19995738	0.24494057	0.7335672	-0.0075700202	0.29942316	0.84666028	-0.12030285	0.36004239	0.50291229	0.14257849	0.32444614	0.50867969	0.24451109	0.17581981	0.63335248	0.18630629	0.29505695	0.1122911	0.11360017	0.27206857	0.096516495	0.20438208	0.31569421	0.35462253	0.25051711	0.19348959	0.058295265	0.14913058
8756	87.55	0.43040375	0.075483147	0.14799553	0.030677345	0.63876935	0.12631702	-0.040228016	0.6746015	0.16873296	-0.18721181	0.66691602	0.01624614	-0.071083801	0.69172559	-0.16215416	0.02089394	0.66352167	-0.14342355	0.32732681	0.87868372	-0.013771585	0.2778558	0.97578766	0.18631268	0.27623956	0.97370001	-0.20011807	0.25046098	0.73486493	-0.007502985	0.30591782	0.84757379	-0.12019984	0.36517722	0.50173651	0.14143391	0.33005588	0.50801349	0.24347017	0.18234303	0.63376636	0.18546281	0.29555057	0.11225645	0.11342802	0.27239346	0.096535095	0.20424686	0.31960394	0.35414996	0.24974374	0.19354512	0.058282356	0.14902405
8757	87.56	0.43055026	0.07536702	0.14797346	0.036357311	0.64097626	0.12602803	-0.034395756	0.67666632	0.1686183	-0.18199481	0.6682854	0.016013401	-0.065753654	0.69332318	-0.16236478	0.026164919	0.66543451	-0.14378116	0.33360156	0.88028101	-0.013790125	0.28370834	0.97785907	0.18597771	0.28276642	0.97536285	-0.2002888	0.25573724	0.73667767	-0.0074968505	0.3119534	0.84909094	-0.12018497	0.37038373	0.5005166	0.14023921	0.33574146	0.5072757	0.24237222	0.18895329	0.63414893	0.18476622	0.29609351	0.11222652	0.11325219	0.27274023	0.096591888	0.20413814	0.32358392	0.35365048	0.24896025	0.19360016	0.05827644	0.14891147
8758	87.57	0.43071335	0.075185043	0.14791249	0.041978458	0.64327429	0.12580981	-0.028635155	0.67882574	0.16857124	-0.1768287	0.66977057	0.01589046	-0.060487415	0.69503607	-0.16251834	0.031366657	0.66745105	-0.14406548	0.33920633	0.88244434	-0.013841091	0.28906186	0.98036823	0.18567545	0.28870618	0.97756104	-0.20047173	0.26085211	0.73898383	-0.0075640664	0.3175369	0.85122015	-0.1202562	0.37561584	0.49926489	0.13899384	0.34145056	0.50648187	0.24121651	0.19560565	0.634526	0.18418649	0.29664767	0.11218716	0.11307315	0.27310583	0.096675659	0.20404688	0.32760452	0.35312878	0.24816391	0.19365494	0.058277977	0.14879773
8759	87.58	0.43087961	0.074950745	0.14782002	0.047561192	0.6456925	0.12565186	-0.022914913	0.68114844	0.16857816	-0.17165869	0.67152856	0.01586098	-0.055234978	0.69695142	-0.16262552	0.036540421	0.6696062	-0.14428755	0.34418536	0.88516376	-0.013927101	0.29396756	0.98330444	0.18541092	0.29408038	0.98029541	-0.20066437	0.2658624	0.74176611	-0.0077052908	0.3226879	0.85395905	-0.12040155	0.38082086	0.49798917	0.13769084	0.34713297	0.50565076	0.23999712	0.20227036	0.63492218	0.18366768	0.29717975	0.11212859	0.11289349	0.27348508	0.096775314	0.20396643	0.33162933	0.35259271	0.24734833	0.19370825	0.058288029	0.14869112
